<svg width="146" height="48" viewBox="0 0 146 48" fill="none" xmlns="http://www.w3.org/2000/svg">
<path d="M14.3398 24.4471L6.59457 32.367V43.4803H0.5V0.559692H6.59457V24.5748L29.7032 0.559692H36.6865L18.5298 19.8484L37.9562 43.4803H30.8459L14.3398 24.4471Z" fill="#FF6060"/>
<path d="M82.3958 40.0314L84.8082 35.4327C87.6015 37.3488 91.9185 38.754 96.1085 38.754C101.568 38.754 103.727 37.0933 103.727 34.2831C103.727 27.0019 83.2845 33.2611 83.2845 20.3594C83.2845 14.4834 88.4903 10.6512 96.7434 10.6512C100.933 10.6512 105.758 11.8008 108.552 13.5892L106.012 18.1878C103.092 16.2717 99.9177 15.633 96.7434 15.633C91.6646 15.633 89.1252 17.5491 89.1252 20.1039C89.1252 27.7683 109.567 21.5091 109.567 34.1553C109.567 40.0314 104.235 43.7358 95.6007 43.7358C90.3949 43.8636 85.0621 42.2029 82.3958 40.0314Z" fill="#FF6060"/>
<path d="M145.5 23.8084V43.4804H139.913V39.1372C138.009 42.0752 134.327 43.7358 129.248 43.7358C121.884 43.7358 117.313 39.7759 117.313 34.1553C117.313 28.918 120.614 24.7026 130.264 24.7026H139.533V23.5529C139.533 18.5711 136.612 15.7608 130.899 15.7608C127.089 15.7608 123.153 17.1659 120.614 19.2098L118.202 14.7389C121.503 12.0563 126.328 10.5234 131.533 10.5234C140.548 10.6512 145.5 14.9943 145.5 23.8084ZM139.66 33.5166V28.918H130.645C124.804 28.918 123.153 31.2173 123.153 33.8999C123.153 37.0934 125.82 39.1372 130.264 39.1372C134.708 39.2649 138.263 37.3488 139.66 33.5166Z" fill="#FF6060"/>
<path d="M63.6042 34.9218V43.6081L67.2864 41.4365V32.7502L63.6042 34.9218Z" fill="#FF6060"/>
<path d="M73.7618 24.3193L58.6524 15.5053L50.2724 10.6512L42.0193 25.0858L42.1463 38.6262L57.1287 47.4403L58.6524 46.5461V33.7721L65.3818 21.8923L72.2382 25.8522V38.6262L73.7618 37.732V24.3193Z" fill="#FF6060"/>
</svg>
