<svg width="123" height="41" viewBox="0 0 123 41" fill="none" xmlns="http://www.w3.org/2000/svg">
<path d="M12.1445 20.8596L5.62785 27.5232V36.8738H0.5V0.76123H5.62785V20.9671L25.0709 0.76123H30.9466L15.6699 16.9904L32.0149 36.8738H26.0324L12.1445 20.8596Z" fill="white"/>
<path d="M69.4054 33.972L71.4352 30.1028C73.7854 31.7149 77.4177 32.8972 80.9431 32.8972C85.5367 32.8972 87.3529 31.5 87.3529 29.1355C87.3529 23.0092 70.1532 28.2757 70.1532 17.4204C70.1532 12.4764 74.5332 9.25208 81.4772 9.25208C85.0026 9.25208 89.0621 10.2194 91.4124 11.7241L89.2758 15.5933C86.8187 13.9811 84.148 13.4437 81.4772 13.4437C77.204 13.4437 75.0674 15.0559 75.0674 17.2054C75.0674 23.6541 92.267 18.3877 92.267 29.028C92.267 33.972 87.7802 37.0888 80.5157 37.0888C76.1357 37.1963 71.6488 35.7991 69.4054 33.972Z" fill="white"/>
<path d="M122.5 20.3221V36.8737H117.799V33.2194C116.197 35.6914 113.099 37.0886 108.826 37.0886C102.63 37.0886 98.7837 33.7568 98.7837 29.0278C98.7837 24.6212 101.561 21.0744 109.68 21.0744H117.479V20.1071C117.479 15.9155 115.022 13.551 110.215 13.551C107.01 13.551 103.698 14.7333 101.561 16.4529L99.5315 12.6912C102.309 10.4341 106.369 9.14441 110.749 9.14441C118.334 9.25189 122.5 12.9061 122.5 20.3221ZM117.586 28.4904V24.6212H110.001C105.087 24.6212 103.698 26.5558 103.698 28.8129C103.698 31.4998 105.941 33.2194 109.68 33.2194C113.419 33.3269 116.411 31.7148 117.586 28.4904Z" fill="white"/>
<path d="M53.5946 29.6731V36.9816L56.6927 35.1544V27.8459L53.5946 29.6731Z" fill="white"/>
<path d="M62.141 20.7522L49.4282 13.3362L42.3774 9.25208L35.4335 21.3971L35.5403 32.7897L48.1463 40.2057L49.4282 39.4533V28.7056L55.0902 18.7101L60.859 22.0419V32.7897L62.141 32.0374V20.7522Z" fill="white"/>
</svg>
